<?xml version="1.0" encoding="UTF-8"?>
<svg xmlns="http://www.w3.org/2000/svg" width="512" height="512" viewBox="0 0 128 128"><g><g><polygon points="1.75 63.997 16.015 51.135 10.084 32.863 28.882 28.878 32.866 10.081 51.138 16.012 64 1.747 76.862 16.012 95.134 10.082 99.119 28.879 117.916 32.864 111.985 51.135 126.25 63.997 111.985 76.86 117.916 95.131 99.118 99.116 95.133 117.913 76.862 111.982 64 126.247 51.137 111.982 32.866 117.913 28.881 99.115 10.084 95.131 16.015 76.859 1.75 63.997" fill="#fabe2c"/><circle cx="64" cy="63.997" r="37" fill="#ff9100"/><path d="M88.042,49.544a1.75,1.75,0,0,1-1.452-.77A27.253,27.253,0,0,0,64,36.747a1.75,1.75,0,0,1,0-3.5A30.747,30.747,0,0,1,89.489,46.814a1.749,1.749,0,0,1-1.447,2.73Z" fill="#5b5555"/></g><g><path d="M102.75,64a38.748,38.748,0,1,0-14.3,30.066,1.75,1.75,0,1,0-2.209-2.714A35.251,35.251,0,1,1,99.25,64a1.75,1.75,0,1,0,3.5,0Z"/><path d="M99.017,76.109a1.75,1.75,0,0,0-2.276.975,35.186,35.186,0,0,1-2.207,4.539,1.75,1.75,0,1,0,3.029,1.752,38.621,38.621,0,0,0,2.428-4.991A1.751,1.751,0,0,0,99.017,76.109Z"/><path d="M64,33.247a1.75,1.75,0,0,0,0,3.5A27.253,27.253,0,0,1,86.59,48.774a1.75,1.75,0,1,0,2.9-1.96A30.747,30.747,0,0,0,64,33.247Z"/><path d="M128,64a1.752,1.752,0,0,0-.578-1.3L114,50.6,119.58,33.4a1.747,1.747,0,0,0-1.3-2.252L100.6,27.4,96.846,9.719a1.749,1.749,0,0,0-2.252-1.3L77.4,14,65.3.575a1.807,1.807,0,0,0-2.6,0L50.6,14,33.406,8.417a1.75,1.75,0,0,0-1.08,3.329L50.6,17.677a1.752,1.752,0,0,0,1.839-.493L64,4.36,75.562,17.184a1.754,1.754,0,0,0,1.84.493l16.423-5.331,3.582,16.9a1.752,1.752,0,0,0,1.349,1.349l16.895,3.581-5.33,16.422a1.751,1.751,0,0,0,.492,1.841L123.637,64,110.813,75.56a1.748,1.748,0,0,0-.492,1.839l5.33,16.423L98.755,97.4a1.749,1.749,0,0,0-1.349,1.349l-3.581,16.895L77.4,110.318a1.752,1.752,0,0,0-1.84.492L64,123.634,52.437,110.81a1.752,1.752,0,0,0-1.839-.493l-16.423,5.331-3.582-16.9A1.752,1.752,0,0,0,29.244,97.4L12.349,93.822,17.679,77.4a1.748,1.748,0,0,0-.493-1.84L4.363,64,17.186,52.435a1.749,1.749,0,0,0,.493-1.84l-5.33-16.423,16.9-3.582a1.75,1.75,0,1,0-.726-3.423l-18.8,3.984A1.747,1.747,0,0,0,8.42,33.4L14,50.6.578,62.7a1.751,1.751,0,0,0,0,2.6L14,77.4,8.42,94.59a1.747,1.747,0,0,0,1.3,2.252l17.684,3.749,3.749,17.684a1.749,1.749,0,0,0,2.252,1.3L50.6,114l12.1,13.422a1.751,1.751,0,0,0,2.6,0L77.4,114l17.193,5.58a1.751,1.751,0,0,0,2.252-1.3l3.748-17.684,17.685-3.749a1.747,1.747,0,0,0,1.3-2.252L114,77.4l13.422-12.1A1.75,1.75,0,0,0,128,64Z"/></g></g></svg>
